<svg width="1440" height="1024" viewBox="0 0 1440 1024" fill="none" xmlns="http://www.w3.org/2000/svg">
<g clip-path="url(#clip0)">
<rect width="1440" height="1024" fill="white"/>
<path d="M517 729.5C517 857.906 408.877 962 275.5 962C142.123 962 34 857.906 34 729.5C34 601.094 142.123 497 275.5 497C408.877 497 517 601.094 517 729.5Z" fill="#5BE308"/>
<g filter="url(#filter0_d)">
<path d="M244.896 91.3726C286.003 142.015 331.496 130.801 350.178 176.069C368.861 221.336 324.556 271.745 302.536 288.726C280.517 305.707 203.081 339.695 165.564 303.694C128.046 267.694 45.0908 261.947 82.3306 184.252C119.57 106.558 203.79 40.7305 244.896 91.3726Z" fill="#F050AE"/>
</g>
<path d="M1399.06 75.2536C1406.83 74.3453 1412.59 82.2978 1409.3 89.3908L1194.18 553.554C1190.97 560.484 1181.49 561.4 1177.01 555.213L884.002 150.488C879.522 144.301 883.353 135.579 890.94 134.691L1399.06 75.2536Z" fill="#FFD500"/>
<path d="M1180.56 744.348C1206.25 743.506 1328.33 654.514 1364.01 677.561C1399.7 700.608 1430.8 827.593 1395.49 886.042C1360.17 944.491 1247.58 947.342 1190.76 955.697C1133.95 964.053 1108.68 971.401 1076.56 910.475C1044.44 849.55 1047 805.807 1077.7 769.174C1108.4 732.541 1154.88 745.189 1180.56 744.348Z" fill="#5090F0"/>
<path d="M807.73 575.406C759.819 638.228 703.584 586.605 681.272 575.767C658.96 564.93 628.937 492.346 642.979 455.078C657.021 417.811 719.942 407.372 751.01 398.019C782.078 388.666 777.098 366.933 821.793 397.817C866.488 428.701 870.584 438.725 870.482 474.461C870.379 510.198 855.64 512.584 807.73 575.406Z" fill="#DD1C1A"/>
</g>
<defs>
<filter id="filter0_d" x="46" y="42" width="339.002" height="311.278" filterUnits="userSpaceOnUse" color-interpolation-filters="sRGB">
<feFlood flood-opacity="0" result="BackgroundImageFix"/>
<feColorMatrix in="SourceAlpha" type="matrix" values="0 0 0 0 0 0 0 0 0 0 0 0 0 0 0 0 0 0 127 0"/>
<feOffset/>
<feGaussianBlur stdDeviation="7.5"/>
<feColorMatrix type="matrix" values="0 0 0 0 1 0 0 0 0 1 0 0 0 0 1 0 0 0 1 0"/>
<feBlend mode="normal" in2="BackgroundImageFix" result="effect1_dropShadow"/>
<feBlend mode="normal" in="SourceGraphic" in2="effect1_dropShadow" result="shape"/>
</filter>
<clipPath id="clip0">
<rect width="1440" height="1024" fill="white"/>
</clipPath>
</defs>
</svg>
